<mxfile host="65bd71144e">
    <diagram id="1AMl2HxBDf19bFFkIbdM" name="Page-1">
        <mxGraphModel dx="2068" dy="1053" grid="1" gridSize="10" guides="1" tooltips="1" connect="1" arrows="1" fold="1" page="1" pageScale="1" pageWidth="1100" pageHeight="850" math="0" shadow="0">
            <root>
                <mxCell id="0"/>
                <mxCell id="1" parent="0"/>
                <mxCell id="7" style="edgeStyle=orthogonalEdgeStyle;html=1;exitX=0.5;exitY=1;exitDx=0;exitDy=0;entryX=0.5;entryY=0;entryDx=0;entryDy=0;fontFamily=Lucida Console;" edge="1" parent="1" source="2" target="3">
                    <mxGeometry relative="1" as="geometry"/>
                </mxCell>
                <mxCell id="2" value="&lt;font face=&quot;Lucida Console&quot;&gt;&lt;div&gt;local.get 0&lt;/div&gt;&lt;div&gt;i32.const 1&lt;/div&gt;&lt;div&gt;i32.add&lt;/div&gt;&lt;div&gt;local.set 0&lt;/div&gt;&lt;/font&gt;" style="rounded=0;whiteSpace=wrap;html=1;fillColor=none;align=left;" vertex="1" parent="1">
                    <mxGeometry x="540" y="150" width="130" height="70" as="geometry"/>
                </mxCell>
                <mxCell id="8" style="edgeStyle=orthogonalEdgeStyle;html=1;exitX=0.5;exitY=1;exitDx=0;exitDy=0;entryX=0.5;entryY=0;entryDx=0;entryDy=0;fontFamily=Lucida Console;" edge="1" parent="1" source="3" target="4">
                    <mxGeometry relative="1" as="geometry"/>
                </mxCell>
                <mxCell id="9" style="edgeStyle=orthogonalEdgeStyle;html=1;exitX=0.5;exitY=1;exitDx=0;exitDy=0;entryX=0.5;entryY=0;entryDx=0;entryDy=0;fontFamily=Lucida Console;" edge="1" parent="1" source="3" target="5">
                    <mxGeometry relative="1" as="geometry"/>
                </mxCell>
                <mxCell id="3" value="&lt;font face=&quot;Lucida Console&quot;&gt;&lt;div&gt;local.get 0&lt;/div&gt;&lt;div&gt;i32.const 1&lt;/div&gt;&lt;div&gt;i32.eq&lt;/div&gt;&lt;div&gt;br_if 0&lt;/div&gt;&lt;/font&gt;" style="rounded=0;whiteSpace=wrap;html=1;fillColor=none;align=left;" vertex="1" parent="1">
                    <mxGeometry x="540" y="270" width="130" height="70" as="geometry"/>
                </mxCell>
                <mxCell id="10" style="edgeStyle=orthogonalEdgeStyle;html=1;exitX=0.5;exitY=1;exitDx=0;exitDy=0;entryX=0.5;entryY=0;entryDx=0;entryDy=0;fontFamily=Lucida Console;" edge="1" parent="1" source="4" target="5">
                    <mxGeometry relative="1" as="geometry"/>
                </mxCell>
                <mxCell id="4" value="&lt;font face=&quot;Lucida Console&quot;&gt;&lt;div&gt;local.get 0&lt;/div&gt;&lt;div&gt;i32.const 1&lt;/div&gt;&lt;div&gt;i32.add&lt;/div&gt;&lt;div&gt;local.set 0&lt;/div&gt;&lt;/font&gt;" style="rounded=0;whiteSpace=wrap;html=1;fillColor=none;align=left;" vertex="1" parent="1">
                    <mxGeometry x="430" y="420" width="130" height="70" as="geometry"/>
                </mxCell>
                <mxCell id="5" value="&lt;font face=&quot;Lucida Console&quot;&gt;&lt;div&gt;local.get 0&lt;/div&gt;&lt;div&gt;i32.const 1&lt;/div&gt;&lt;div&gt;i32.add&lt;/div&gt;&lt;div&gt;local.set 0&lt;/div&gt;&lt;/font&gt;" style="rounded=0;whiteSpace=wrap;html=1;fillColor=none;align=left;" vertex="1" parent="1">
                    <mxGeometry x="540" y="570" width="130" height="70" as="geometry"/>
                </mxCell>
                <mxCell id="11" value="Insert Counter" style="html=1;shadow=0;dashed=0;align=left;verticalAlign=middle;shape=mxgraph.arrows2.calloutArrow;dy=3.4;dx=24.6;notch=111.4;arrowHead=2.4;fontFamily=Lucida Console;fillColor=none;" vertex="1" parent="1">
                    <mxGeometry x="380" y="197" width="160" height="30" as="geometry"/>
                </mxCell>
                <mxCell id="13" value="Insert Counter" style="html=1;shadow=0;dashed=0;align=left;verticalAlign=middle;shape=mxgraph.arrows2.calloutArrow;dy=3.4;dx=24.6;notch=111.4;arrowHead=2.4;fontFamily=Lucida Console;fillColor=none;" vertex="1" parent="1">
                    <mxGeometry x="380" y="303" width="160" height="30" as="geometry"/>
                </mxCell>
                <mxCell id="14" value="Insert Counter" style="html=1;shadow=0;dashed=0;align=left;verticalAlign=middle;shape=mxgraph.arrows2.calloutArrow;dy=3.4;dx=24.6;notch=111.4;arrowHead=2.4;fontFamily=Lucida Console;fillColor=none;" vertex="1" parent="1">
                    <mxGeometry x="269" y="468" width="160" height="30" as="geometry"/>
                </mxCell>
                <mxCell id="15" value="Insert Counter" style="html=1;shadow=0;dashed=0;align=left;verticalAlign=middle;shape=mxgraph.arrows2.calloutArrow;dy=3.4;dx=24.6;notch=111.4;arrowHead=2.4;fontFamily=Lucida Console;fillColor=none;" vertex="1" parent="1">
                    <mxGeometry x="380" y="616" width="160" height="30" as="geometry"/>
                </mxCell>
            </root>
        </mxGraphModel>
    </diagram>
</mxfile>